<svg xmlns="http://www.w3.org/2000/svg" xmlns:xlink="http://www.w3.org/1999/xlink" version="1.1" x="0px" y="0px" viewBox="0 0 100 125" style="enable-background:new 0 0 100 100;" xml:space="preserve"><path style="" d="M80.386,34.78C68.483,12.632,33.632,7.764,33.632,7.764  s16.09,18.479-4.479,33.072c-9.896,7.021-15.23,15.636-14.767,25.123c-0.01,0.242-0.045,0.479-0.045,0.721  c0,14.113,14.288,25.557,31.913,25.557c5.283,0,10.258-1.047,14.647-2.869c-0.013,0.018-0.02,0.035-0.032,0.053  c12.814-4.246,21.346-14.885,23.706-24.369C87.038,55.143,85.16,43.661,80.386,34.78z M27.12,57.535  c-2.812,5.385-3.659,11.168-2.662,15.605c-4.095-3.824-5.03-10.969-1.906-16.941c2.646-5.064,7.412-7.737,11.877-7.225  C31.684,50.841,29.085,53.777,27.12,57.535z" fill-rule="evenodd" clip-rule="evenodd"/><text x="0" y="115" fill="#000000" font-size="5px" font-weight="bold" font-family="'Helvetica Neue', Helvetica, Arial-Unicode, Arial, Sans-serif">Created by Mike Rowe</text><text x="0" y="120" fill="#000000" font-size="5px" font-weight="bold" font-family="'Helvetica Neue', Helvetica, Arial-Unicode, Arial, Sans-serif">from the Noun Project</text></svg>